<svg width="101" height="101" viewBox="0 0 101 101" fill="none" xmlns="http://www.w3.org/2000/svg">
<g clip-path="url(#clip0_12323_6112)">
<g clip-path="url(#clip1_12323_6112)">
<path d="M54.0459 58.4326H47.0181C46.7403 58.4326 46.5273 58.6548 46.5273 58.9234V84.9048C46.5273 85.1826 46.7496 85.3956 47.0181 85.3956H54.0459C54.3236 85.3956 54.5366 85.1734 54.5366 84.9048V58.9326C54.5459 58.6548 54.3236 58.4326 54.0459 58.4326Z" fill="#FF7C00"/>
<path d="M50.5277 45.4973C47.861 45.4973 45.6943 47.6918 45.6943 50.3862C45.6943 52.9788 47.9073 55.164 50.5277 55.164C53.1943 55.164 55.361 53.0158 55.361 50.3862C55.361 47.6455 53.2406 45.4973 50.5277 45.4973Z" fill="#FF7C00"/>
<path d="M47.0184 42.3122H54.0461C54.3239 42.3122 54.5369 42.09 54.5369 41.8214V15.8307C54.5369 15.5529 54.3147 15.34 54.0461 15.34H47.0184C46.7406 15.34 46.5276 15.5622 46.5276 15.8307V41.8214C46.5184 42.09 46.7406 42.3122 47.0184 42.3122Z" fill="#FF7C00"/>
<path d="M41.9815 46.3678H15.9907C15.713 46.3678 15.5 46.59 15.5 46.8585V53.8863C15.5 54.1641 15.7222 54.3771 15.9907 54.3771H41.9815C42.2593 54.3771 42.4722 54.1548 42.4722 53.8863V46.8585C42.4722 46.59 42.25 46.3678 41.9815 46.3678Z" fill="#FF7C00"/>
<path d="M85.0738 46.3678H59.0923C58.8145 46.3678 58.6016 46.59 58.6016 46.8585V53.8863C58.6016 54.1641 58.8238 54.3771 59.0923 54.3771H85.0738C85.3516 54.3771 85.5645 54.1548 85.5645 53.8863V46.8585C85.5645 46.59 85.3423 46.3678 85.0738 46.3678Z" fill="#FF7C00"/>
</g>
</g>
<defs>
<clipPath id="clip0_12323_6112">
<rect width="100" height="100" fill="white" transform="translate(0.5 0.339966)"/>
</clipPath>
<clipPath id="clip1_12323_6112">
<rect width="100" height="100" fill="white" transform="translate(0.5 0.339966)"/>
</clipPath>
</defs>
</svg>
