<svg width="219" height="54" viewBox="0 0 219 54" fill="none" xmlns="http://www.w3.org/2000/svg">
<path d="M60.0546 8.30518C50.7112 8.30518 43.1133 15.9876 43.1133 25.4268C43.1133 34.8696 50.7148 42.5484 60.0546 42.5484C69.398 42.5484 76.9959 34.866 76.9959 25.4268C76.9959 15.9876 69.398 8.30518 60.0546 8.30518ZM60.0546 39.564C52.3427 39.564 46.0663 33.2208 46.0663 25.4268C46.0663 17.6328 52.3427 11.2896 60.0546 11.2896C67.7665 11.2896 74.0429 17.6328 74.0429 25.4268C74.0429 33.2208 67.7701 39.564 60.0546 39.564Z" fill="#032541"/>
<path d="M38.9529 32.9294C38.2761 32.4686 37.3571 32.6486 36.9011 33.329C34.2937 37.2314 29.9551 39.5642 25.303 39.5642C17.591 39.5642 11.3146 33.221 11.3146 25.427C11.3146 17.633 17.591 11.2898 25.303 11.2898C29.9194 11.2898 34.2331 13.5902 36.8477 17.4422C37.3072 18.1226 38.2298 18.2954 38.903 17.831C39.5763 17.363 39.7473 16.4342 39.2877 15.7538C36.1246 11.0882 30.8955 8.30176 25.3065 8.30176C15.9632 8.30176 8.36523 15.9842 8.36523 25.4234C8.36523 34.8662 15.9667 42.545 25.3065 42.545C30.9418 42.545 36.1959 39.7226 39.3554 34.9958C39.8078 34.319 39.6297 33.3902 38.9529 32.9294Z" fill="#032541"/>
<path d="M127.605 8.30518C118.262 8.30518 110.664 15.9876 110.664 25.4268C110.664 34.8696 118.266 42.5484 127.605 42.5484C136.949 42.5484 144.547 34.866 144.547 25.4268C144.55 15.9876 136.949 8.30518 127.605 8.30518ZM127.605 39.564C119.893 39.564 113.617 33.2208 113.617 25.4268C113.617 17.6328 119.89 11.2896 127.605 11.2896C135.321 11.2896 141.594 17.6328 141.594 25.4268C141.594 33.2208 135.321 39.564 127.605 39.564Z" fill="#032541"/>
<path d="M97.1604 8.30518H78.2244C77.4086 8.30518 76.7461 8.97478 76.7461 9.79918C76.7461 10.6236 77.4086 11.2932 78.2244 11.2932H97.1604C101.52 11.2932 105.065 14.8788 105.065 19.2816C105.065 23.6844 101.517 27.27 97.1604 27.27H81.7437V41.058C81.7437 41.8824 82.4063 42.552 83.222 42.552C84.0377 42.552 84.7002 41.8824 84.7002 41.058V30.258H97.1604C103.148 30.258 108.021 25.3332 108.021 19.2816C108.021 13.23 103.148 8.30518 97.1604 8.30518Z" fill="#032541"/>
<path d="M175.209 19.2816C175.209 13.23 170.336 8.30518 164.348 8.30518H150.41C149.594 8.30518 148.932 8.97478 148.932 9.79918V41.058C148.932 41.8824 149.594 42.552 150.41 42.552C151.226 42.552 151.888 41.8824 151.888 41.058V30.258H160.601L171.736 42.0876C172.025 42.3972 172.417 42.552 172.808 42.552C173.175 42.552 173.539 42.4152 173.827 42.1416C174.418 41.5728 174.443 40.6296 173.881 40.032L164.673 30.2508C170.511 30.0744 175.209 25.2252 175.209 19.2816ZM164.348 27.27H151.888V11.2896H164.348C168.708 11.2896 172.253 14.8752 172.253 19.278C172.253 23.6808 168.708 27.27 164.348 27.27Z" fill="#032541"/>
<path d="M195.668 7.66797L177.188 41.8536H214.148L195.668 7.66797ZM195.668 13.896L209.168 38.8656H182.167L195.668 13.896Z" fill="#032541"/>
<path d="M204.279 11.6962H204.714V9.30939H205.434V8.91699H203.553V9.30939H204.279V11.6962Z" fill="#032541"/>
<path d="M206.196 9.68739L207.065 10.9114H207.111L207.988 9.70539V11.6962H208.419V8.91699H208.013L207.097 10.2202L206.167 8.91699H205.758V11.6962H206.196V9.68739Z" fill="#032541"/>
</svg>
