<svg width="101" height="101" viewBox="0 0 101 101" fill="none" xmlns="http://www.w3.org/2000/svg">
<g clip-path="url(#clip0_12323_6124)">
<g clip-path="url(#clip1_12323_6124)">
<path d="M50.5374 45.1873C47.8708 45.1873 45.7041 47.3817 45.7041 50.0761C45.7041 52.6687 47.9171 54.8539 50.5374 54.8539C53.2041 54.8539 55.3708 52.7058 55.3708 50.0761C55.3615 47.3354 53.2411 45.1873 50.5374 45.1873Z" fill="#FF7C00"/>
<path d="M85.0741 46.0577H60.2037L77.787 28.4744C77.9815 28.2799 77.9815 27.9651 77.787 27.7706L72.8241 22.8077C72.6296 22.6132 72.3148 22.6132 72.1204 22.8077L54.537 40.391V15.5206C54.537 15.2429 54.3148 15.0299 54.0463 15.0299H47.0185C46.7407 15.0299 46.5278 15.2521 46.5278 15.5206V40.391L28.9444 22.8077C28.75 22.6132 28.4352 22.6132 28.2407 22.8077L23.2778 27.7799C23.0833 27.9744 23.0833 28.2892 23.2778 28.4836L40.8611 46.0669H15.9907C15.713 46.0669 15.5 46.2892 15.5 46.5577V53.5855C15.5 53.8632 15.7222 54.0762 15.9907 54.0762H40.8611L23.2778 71.6595C23.0833 71.854 23.0833 72.1688 23.2778 72.3632L28.2407 77.3262C28.4352 77.5206 28.75 77.5206 28.9444 77.3262L46.5278 59.7429V84.604C46.5278 84.8818 46.75 85.0947 47.0185 85.0947H54.0463C54.3241 85.0947 54.537 84.8725 54.537 84.604V59.7336L72.1204 77.3169C72.3148 77.5114 72.6296 77.5114 72.8241 77.3169L77.787 72.354C77.9815 72.1595 77.9815 71.8447 77.787 71.6503L60.213 54.0669H85.0741C85.3519 54.0669 85.5648 53.8447 85.5648 53.5762V46.5484C85.5648 46.2799 85.3519 46.0577 85.0741 46.0577ZM53.8704 58.1225H47.1944L42.4722 53.4003V46.7244L47.1944 42.0021H53.8704L58.5926 46.7244V53.4003L53.8704 58.1225Z" fill="#FF7C00"/>
</g>
</g>
<defs>
<clipPath id="clip0_12323_6124">
<rect width="100" height="100" fill="white" transform="translate(0.5 0.0299072)"/>
</clipPath>
<clipPath id="clip1_12323_6124">
<rect width="100" height="100" fill="white" transform="translate(0.5 0.0299072)"/>
</clipPath>
</defs>
</svg>
