<svg width="1476" height="845" viewBox="0 0 1476 845" fill="none" xmlns="http://www.w3.org/2000/svg">
<g clip-path="url(#clip0_14928_6087)">
<g clip-path="url(#clip1_14928_6087)">
<path d="M998.776 -150.362H830.441V17.9732H998.776V-150.362Z" fill="#1EA2DA"/>
<path d="M1608.42 -150.362H1103.41C1056.93 -150.362 1019.25 -112.679 1019.25 -66.1944V-66.1942C1019.25 -19.7098 1056.93 17.9732 1103.41 17.9732H1608.42C1654.9 17.9732 1692.59 -19.7098 1692.59 -66.1944C1692.59 -112.679 1654.9 -150.362 1608.42 -150.362Z" fill="#DD5351"/>
<path d="M1324.02 38.4438H1829.02C1875.51 38.4438 1913.19 76.1269 1913.19 122.611V122.611C1913.19 169.096 1875.51 206.779 1829.02 206.779H1324.02C1277.53 206.779 1239.85 169.096 1239.85 122.611C1239.85 76.1269 1277.53 38.4438 1324.02 38.4438Z" fill="#F0965B"/>
<path d="M1323.75 227.249H1155.41V395.584H1323.75V227.249Z" fill="#1EA2DA"/>
<path d="M1933.39 227.249H1428.39C1381.9 227.249 1344.22 264.932 1344.22 311.416V311.417C1344.22 357.901 1381.9 395.584 1428.39 395.584H1933.39C1979.88 395.584 2017.56 357.901 2017.56 311.416C2017.56 264.932 1979.88 227.249 1933.39 227.249Z" fill="#DD5351"/>
<path d="M914.608 416.054H1419.61C1466.1 416.054 1503.78 453.737 1503.78 500.222V500.222C1503.78 546.706 1466.1 584.389 1419.61 584.389H914.608C868.124 584.389 830.441 546.706 830.441 500.222C830.441 453.737 868.124 416.054 914.608 416.054Z" fill="#F0965B"/>
<path d="M914.335 604.86H746V773.195H914.335V604.86Z" fill="#DD5351"/>
<path d="M1523.98 604.86H1018.97C972.488 604.86 934.805 642.543 934.805 689.027V689.027C934.805 735.512 972.488 773.195 1018.97 773.195H1523.98C1570.46 773.195 1608.14 735.512 1608.14 689.027C1608.14 642.543 1570.46 604.86 1523.98 604.86Z" fill="#1EA2DA"/>
<path d="M914.608 793.665H1419.61C1466.1 793.665 1503.78 831.348 1503.78 877.832V877.833C1503.78 924.317 1466.1 962 1419.61 962H914.608C868.124 962 830.441 924.317 830.441 877.832C830.441 831.348 868.124 793.665 914.608 793.665Z" fill="#F0965B"/>
</g>
</g>
<defs>
<clipPath id="clip0_14928_6087">
<rect width="1476" height="845" fill="white"/>
</clipPath>
<clipPath id="clip1_14928_6087">
<rect width="730" height="999" fill="white" transform="translate(746 -77)"/>
</clipPath>
</defs>
</svg>
