<svg width="101" height="101" viewBox="0 0 101 101" fill="none" xmlns="http://www.w3.org/2000/svg">
<g clip-path="url(#clip0_12323_6133)">
<g clip-path="url(#clip1_12323_6133)">
<path d="M85.0741 46.8504H70.7963L84 41.4152C84.25 41.3134 84.3704 41.0263 84.2685 40.7671L81.5926 34.2763C81.4907 34.0263 81.2037 33.906 80.9444 34.0078L67.5278 39.5263L77.787 29.2671C77.9815 29.0726 77.9815 28.7578 77.787 28.5634L72.8241 23.6004C72.6296 23.406 72.3148 23.406 72.1204 23.6004L62.0278 33.693L67.5185 20.5171C67.6204 20.2671 67.5 19.9708 67.25 19.8689L60.7685 17.1652C60.5185 17.0634 60.2222 17.1837 60.1204 17.4337L54.537 30.8226V16.3134C54.537 16.0356 54.3148 15.8226 54.0463 15.8226H47.0185C46.7407 15.8226 46.5278 16.0449 46.5278 16.3134V30.5912L41.0926 17.3967C40.9907 17.1467 40.7037 17.0263 40.4444 17.1282L33.9537 19.8041C33.7037 19.906 33.5833 20.193 33.6852 20.4523L39.2037 33.8597L28.9444 23.6004C28.75 23.406 28.4352 23.406 28.2407 23.6004L23.2778 28.5726C23.0833 28.7671 23.0833 29.0819 23.2778 29.2763L33.3704 39.3689L20.1944 33.8782C19.9444 33.7763 19.6481 33.8967 19.5463 34.1467L16.8426 40.6282C16.7407 40.8782 16.8611 41.1745 17.1111 41.2763L30.5 46.8504H15.9907C15.713 46.8504 15.5 47.0726 15.5 47.3411V54.3689C15.5 54.6467 15.7222 54.8597 15.9907 54.8597H30.2685L17.0741 60.3041C16.8241 60.406 16.7037 60.693 16.8056 60.9523L19.4815 67.443C19.5833 67.693 19.8704 67.8134 20.1296 67.7115L33.5463 62.193L23.2778 72.4523C23.0833 72.6467 23.0833 72.9615 23.2778 73.156L28.2407 78.1189C28.4352 78.3134 28.75 78.3134 28.9444 78.1189L39.037 68.0263L33.5463 81.193C33.4444 81.443 33.5648 81.7393 33.8148 81.8411L40.2963 84.5449C40.5463 84.6467 40.8426 84.5263 40.9444 84.2763L46.5278 70.8782V85.3874C46.5278 85.6652 46.75 85.8782 47.0185 85.8782H54.0463C54.3241 85.8782 54.537 85.656 54.537 85.3874V71.1189L59.9722 84.3226C60.0741 84.5726 60.3611 84.693 60.6204 84.5911L67.1111 81.9152C67.3611 81.8134 67.4815 81.5263 67.3796 81.2671L61.8518 67.8504L72.1111 78.1097C72.3056 78.3041 72.6204 78.3041 72.8148 78.1097L77.7778 73.1467C77.9722 72.9523 77.9722 72.6374 77.7778 72.443L67.6852 62.3504L80.8704 67.8411C81.1204 67.943 81.4167 67.8226 81.5185 67.5726L84.2222 61.0912C84.3241 60.8412 84.2037 60.5449 83.9537 60.443L70.5555 54.8597H85.0648C85.3426 54.8597 85.5555 54.6374 85.5555 54.3689V47.3411C85.5648 47.0726 85.3519 46.8504 85.0741 46.8504Z" fill="#FF7C00"/>
</g>
</g>
<defs>
<clipPath id="clip0_12323_6133">
<rect width="100" height="100" fill="white" transform="translate(0.5 0.72998)"/>
</clipPath>
<clipPath id="clip1_12323_6133">
<rect width="100" height="100" fill="white" transform="translate(0.5 0.72998)"/>
</clipPath>
</defs>
</svg>
