<svg width="49" height="54" viewBox="0 0 49 54" fill="none" xmlns="http://www.w3.org/2000/svg">
<g clip-path="url(#clip0_15320_51852)">
<g clip-path="url(#clip1_15320_51852)">
<g clip-path="url(#clip2_15320_51852)">
<path d="M24.1264 41.7031C22.5694 41.7031 21.0126 41.7095 19.4557 41.7009C18.4366 41.6956 18.0951 41.3644 17.9703 40.3632C17.8647 39.5244 17.839 38.6515 17.5733 37.8619C17.2767 36.9815 16.8701 36.0828 16.2981 35.3627C15.2855 34.089 14.069 32.9799 13.0136 31.7362C11.8451 30.3589 11.0544 28.785 10.5294 27.023C9.84756 24.7333 9.6747 22.452 10.1997 20.1515C10.4857 18.8971 10.7098 17.5904 11.5005 16.4898C12.305 15.37 12.9603 14.1252 13.8705 13.107C14.673 12.2094 15.6739 11.4433 16.7037 10.8108C17.8028 10.1354 19.0353 9.70058 20.2656 9.24968C22.4788 8.43869 24.6866 8.72932 26.8678 8.91204C28.1291 9.01781 29.3584 9.74546 30.5578 10.2894C31.341 10.6451 32.1073 11.0993 32.7709 11.6442C33.6812 12.3911 34.5978 13.1807 35.3096 14.107C36.1249 15.1702 36.8985 16.337 37.3701 17.5797C38.2036 19.7744 38.7424 22.0706 38.37 24.464C38.1267 26.0262 37.7885 27.5691 37.0884 28.9998C36.2561 30.7019 35.1025 32.1518 33.6887 33.4255C31.7402 35.1821 30.5845 37.364 30.385 40.032C30.274 41.515 30.0104 41.7053 28.5485 41.7042C27.0738 41.7042 25.5989 41.7042 24.1232 41.7042L24.1264 41.7031ZM24.168 39.5266C25.2329 39.5266 26.2979 39.5127 27.3629 39.533C27.8506 39.5415 28.1419 39.3481 28.2486 38.8748C28.4054 38.1845 28.4908 37.4676 28.733 36.8094C29.4501 34.8626 30.5909 33.1584 32.1392 31.7971C33.9298 30.2242 35.1687 28.364 35.7332 26.0454C36.589 22.531 36.0939 19.2647 34.0867 16.2184C32.0837 13.1785 29.1898 11.6142 25.7121 10.9902C23.6707 10.6238 21.6678 11.0234 19.7897 11.751C18.5518 12.2308 17.3919 13.0182 16.3429 13.8527C14.6751 15.1799 13.4896 16.9482 12.8066 18.9538C11.9113 21.5844 11.9678 24.2877 12.8066 26.9354C13.0734 27.7784 13.4479 28.6429 13.9847 29.332C14.896 30.502 16.0367 31.4904 16.964 32.6487C17.8038 33.698 18.5806 34.8231 19.2071 36.0101C19.6541 36.8564 19.8441 37.8501 20.0736 38.7968C20.2123 39.3674 20.5068 39.5469 21.0542 39.534C22.0914 39.5106 23.1297 39.5277 24.167 39.5255L24.168 39.5266Z" fill="white"/>
<path d="M24.1607 46.6144C25.581 46.6144 27.0002 46.5984 28.4205 46.6209C29.2006 46.6337 29.732 47.2406 29.6114 47.948C29.5773 48.1467 29.4652 48.448 29.3211 48.495C28.3203 48.8198 28.1698 49.8189 27.6735 50.5273C26.2895 52.504 24.5256 52.9004 22.4693 52.145C21.4204 51.7603 20.6606 50.8083 20.1739 49.7099C20.0011 49.3199 19.6458 48.9683 19.2904 48.7151C18.8796 48.4224 18.5018 48.1317 18.6673 47.6039C18.8337 47.0739 19.1666 46.6219 19.8197 46.6198C21.2667 46.6144 22.7137 46.6177 24.1607 46.6177C24.1607 46.6177 24.1607 46.6155 24.1607 46.6134V46.6144ZM24.2354 48.869C24.2354 48.869 24.2354 48.8605 24.2354 48.8561C23.8288 48.8561 23.4211 48.8348 23.0167 48.8615C22.4747 48.8979 22.4063 49.0784 22.6987 49.5186C23.3667 50.523 25.0495 50.5668 25.692 49.415C25.885 49.0677 25.8339 48.9 25.454 48.8743C25.0495 48.8476 24.642 48.8679 24.2354 48.8679V48.869Z" fill="white"/>
<path d="M24.1733 45.3065C22.7551 45.3065 21.3359 45.3322 19.9188 45.2884C19.5795 45.2777 19.1558 45.1206 18.9296 44.8802C18.3459 44.2615 18.618 43.4591 19.4418 43.2475C19.7278 43.1738 20.0362 43.1642 20.3338 43.1631C22.8981 43.1567 25.4613 43.1589 28.0255 43.1599C28.2433 43.1599 28.463 43.162 28.6786 43.192C29.4031 43.2956 29.6646 43.6001 29.6241 44.2679C29.5856 44.9048 29.241 45.2851 28.5911 45.2958C27.1185 45.3182 25.6459 45.3033 24.1733 45.3033V45.3065Z" fill="white"/>
<path d="M8.90863 13.5062C8.72509 13.4613 8.5042 13.4677 8.36334 13.3652C7.27917 12.5659 6.20886 11.7475 5.13857 10.929C4.67972 10.5774 4.5698 10.1276 4.89527 9.64036C5.25061 9.10824 5.89941 8.94797 6.42869 9.2995C7.50432 10.0132 8.57463 10.7398 9.5969 11.5273C9.94797 11.7976 10.1828 12.2528 9.94154 12.7689C9.73563 13.2102 9.51685 13.6215 8.90863 13.5073V13.5062Z" fill="white"/>
<path d="M43.5501 9.95176C43.5501 10.8162 43.0646 11.1175 42.6399 11.4444C41.8695 12.0364 41.0734 12.5941 40.3018 13.1861C39.8046 13.5676 38.8623 13.5953 38.5817 13.2043C38.172 12.6315 38.3843 11.7757 38.9861 11.3622C39.9615 10.6933 40.9229 10.002 41.8716 9.29463C42.3305 8.95271 42.737 9.02109 43.1116 9.37369C43.3271 9.57671 43.4765 9.85134 43.5501 9.95176Z" fill="white"/>
<path d="M25.2766 3.66557C25.2766 4.26499 25.3107 4.86656 25.268 5.46171C25.2136 6.22996 24.8316 6.56761 24.1262 6.56119C23.4539 6.55478 23.1765 6.26308 23.1413 5.44461C23.0901 4.27675 23.041 3.10781 23.042 1.93994C23.042 1.19734 23.4059 0.801995 24.0067 0.740022C24.7676 0.660953 25.2296 1.04989 25.2787 1.86942C25.3139 2.46671 25.2862 3.06721 25.2862 3.66664C25.283 3.66664 25.2808 3.66664 25.2776 3.66664L25.2766 3.66557Z" fill="white"/>
<path d="M17.287 6.83676C17.2828 7.74818 16.3907 8.26961 15.6981 7.8764C15.49 7.75779 15.2564 7.59325 15.1561 7.38917C14.6023 6.27366 14.0474 5.15494 13.5746 4.00417C13.3196 3.38338 13.5874 2.86516 14.0986 2.65573C14.6161 2.44416 15.298 2.67817 15.5691 3.19959C16.1069 4.23604 16.6276 5.28209 17.142 6.33136C17.2359 6.52261 17.2625 6.74593 17.2881 6.83676H17.287Z" fill="white"/>
<path d="M32.3537 8.00553C31.3048 7.99271 30.7989 7.28322 31.1255 6.57909C31.6623 5.42404 32.2406 4.28717 32.8414 3.1631C33.1508 2.58505 33.7911 2.39699 34.2926 2.6545C34.76 2.89385 34.9884 3.53281 34.7398 4.09911C34.2841 5.13982 33.837 6.18909 33.2821 7.17744C33.058 7.57813 32.5629 7.82602 32.3515 8.0066L32.3537 8.00553Z" fill="white"/>
<path d="M2.17849 20.4043C3.15381 20.508 4.12914 20.6052 5.1034 20.7173C5.74899 20.7921 6.3199 21.4012 6.27294 21.9429C6.22492 22.4985 5.63908 22.9249 4.95187 22.8693C3.81221 22.7764 2.67042 22.6866 1.53608 22.5487C0.822199 22.4622 0.26624 21.8852 0.307857 21.3777C0.355876 20.7878 0.995068 20.3519 1.76978 20.3851C1.9053 20.3904 2.04083 20.4096 2.17742 20.4225C2.17742 20.416 2.17849 20.4107 2.17954 20.4043H2.17849Z" fill="white"/>
<path d="M44.1999 22.8526C43.819 22.8526 43.4348 22.8793 43.056 22.8462C42.5043 22.7981 42.1585 22.4626 42.0539 21.9305C41.9761 21.5362 42.4786 20.8192 42.9034 20.7691C44.2586 20.6109 45.6181 20.4742 46.9797 20.3876C47.4919 20.3555 47.986 20.8972 48.0212 21.3706C48.0574 21.8589 47.6605 22.3686 47.128 22.4754C46.6457 22.5727 46.1591 22.6517 45.6714 22.7073C45.1838 22.7629 44.6908 22.7811 44.2009 22.8152C44.2009 22.827 44.2009 22.8398 44.2009 22.8515L44.1999 22.8526Z" fill="white"/>
</g>
</g>
</g>
<defs>
<clipPath id="clip0_15320_51852">
<rect width="48" height="52.52" fill="white" transform="translate(0.300781 0.72998)"/>
</clipPath>
<clipPath id="clip1_15320_51852">
<rect width="48" height="52.52" fill="white" transform="translate(0.300781 0.72998)"/>
</clipPath>
<clipPath id="clip2_15320_51852">
<rect width="47.9924" height="52.52" fill="white" transform="translate(0.304688 0.72998)"/>
</clipPath>
</defs>
</svg>
