<svg width="658" height="674" viewBox="0 0 658 674" fill="none" xmlns="http://www.w3.org/2000/svg">
<path d="M518.269 671.671H87.7694L87.7695 279.171C80.9695 281.571 66.6029 277.171 60.2695 274.671C33.8695 270.271 15.2694 240.505 9.2694 226.171C-0.330597 214.971 1.60274 162.505 3.7694 137.671C14.9694 78.0714 56.4361 63.5047 75.7694 63.6714C118.969 58.4714 146.769 83.5047 155.269 96.6714V31.1714C157.669 9.57139 176.936 2.83805 186.269 2.17139H621.269C647.669 -0.228613 655.269 23.1714 655.769 35.1714V461.171C656.169 485.571 634.936 492.338 624.269 492.671H518.269V671.671Z" stroke="black" stroke-width="4"/>
</svg>
